PathFileType	4	(X/Y/Z)	C:/Users/opensim2020/Desktop/walking_exp_matlab/subject03_walking08_straight_02.trc																																																																																																																																																							
DataRate	CameraRate	NumFrames	NumMarkers	Units	OrigDataRate	OrigDataStartFrame	OrigNumFrames																																																																																																																																																			
100	100	5	51	mm	100	1710	314																																																																																																																																																			
Frame#	Time	LFHD			RFHD			LBHD			RBHD			C7			T10			CLAV			STRN			RBAK			LSHO			LUPA			LELB			LFRM			LWRA			LWRB			LFIN			RSHO			RUPA			RELB			RFRM			RWRA			RWRB			RFIN			LASI			RASI			LPSI			RPSI			LTHI			LKNE			LTIB			LANK			LHEE			LTOE			RTHI			RKNE			RTIB			RANK			RHEE			RTOE			*39			*40			*41			*42			*43			*44			*45			*46			*47			*48			*49			*50		
		X1	Y1	Z1	X2	Y2	Z2	X3	Y3	Z3	X4	Y4	Z4	X5	Y5	Z5	X6	Y6	Z6	X7	Y7	Z7	X8	Y8	Z8	X9	Y9	Z9	X10	Y10	Z10	X11	Y11	Z11	X12	Y12	Z12	X13	Y13	Z13	X14	Y14	Z14	X15	Y15	Z15	X16	Y16	Z16	X17	Y17	Z17	X18	Y18	Z18	X19	Y19	Z19	X20	Y20	Z20	X21	Y21	Z21	X22	Y22	Z22	X23	Y23	Z23	X24	Y24	Z24	X25	Y25	Z25	X26	Y26	Z26	X27	Y27	Z27	X28	Y28	Z28	X29	Y29	Z29	X30	Y30	Z30	X31	Y31	Z31	X32	Y32	Z32	X33	Y33	Z33	X34	Y34	Z34	X35	Y35	Z35	X36	Y36	Z36	X37	Y37	Z37	X38	Y38	Z38	X39	Y39	Z39	X40	Y40	Z40	X41	Y41	Z41	X42	Y42	Z42	X43	Y43	Z43	X44	Y44	Z44	X45	Y45	Z45	X46	Y46	Z46	X47	Y47	Z47	X48	Y48	Z48	X49	Y49	Z49	X50	Y50	Z50	X51	Y51	Z51
																																																																																																																																																										
158	1.57	75.05632	1617.91406	-1516.08655	58.57659	1617.97974	-1383.76428	-56.65882	1588.22314	-1528.30334	-68.0932	1587.78345	-1397.23193	-104.0575	1419.94446	-1473.45911	-125.50642	1102.82727	-1469.70483	17.88128	1345.32422	-1468.60901	69.56432	1184.04785	-1474.91663	-154.1442	1239.59521	-1377.87976	-23.2433	1381.59583	-1624.31555	-2.13796	1187.21057	-1694.97046	26.34019	1067.51501	-1705.58899	85.23798	951.76886	-1700.05029	136.71852	846.41907	-1663.82654	113.58603	841.79138	-1714.62463	153.67934	768.44751	-1701.41516	-31.66102	1367.35205	-1310.06335	-24.67255	1142.09375	-1243.25769	-8.67601	1029.37024	-1236.40283	2.63352	892.69391	-1237.18958	23.58446	796.30078	-1276.75769	-1.64344	792.14545	-1228.32349	13.40146	718.71558	-1243.13623	38.13735	938.26697	-1588.98767	50.35086	947.70734	-1350.97559	-120.04011	966.28662	-1529.2793	-111.66457	976.05505	-1381.3656	-62.92733	641.63556	-1629.32813	-94.87809	464.54742	-1606.1062	-239.86897	323.31741	-1597.67786	-364.75705	155.68678	-1550.45435	-411.18469	154.83467	-1509.0592	-274.38266	32.62642	-1517.08374	23.89319	652.38696	-1308.65674	63.1879	475.9595	-1348.2356	49.32882	287.98029	-1343.40271	62.60783	72.31074	-1391.60217	20.7262	40.11068	-1444.78442	205.51381	38.35254	-1405.06653	NaN	NaN	NaN	NaN	NaN	NaN	NaN	NaN	NaN	NaN	NaN	NaN	NaN	NaN	NaN	NaN	NaN	NaN	NaN	NaN	NaN	NaN	NaN	NaN	NaN	NaN	NaN	NaN	NaN	NaN	NaN	NaN	NaN	NaN	NaN	NaN
159	1.58	84.17406	1618.30371	-1515.35095	67.65005	1618.17334	-1383.01697	-47.71595	1589.29321	-1527.59973	-59.20713	1588.73401	-1396.5321	-95.58015	1420.49841	-1472.57971	-116.49217	1103.27673	-1468.08167	26.61976	1346.10376	-1468.07568	78.64063	1184.89551	-1474.35095	-144.83197	1240.07446	-1376.64294	-15.04937	1382.20691	-1623.53918	4.53268	1187.54065	-1694.00049	31.25833	1067.36145	-1704.48547	88.52186	950.68866	-1699.25	138.71687	844.4494	-1663.36877	114.99822	840.12433	-1713.87329	153.43469	765.7691	-1700.74927	-22.47866	1368.16223	-1309.41931	-14.11317	1143.20276	-1242.02161	2.4192	1030.58044	-1234.96265	14.69596	894.00763	-1235.5675	35.85658	797.47797	-1275.0199	11.03313	793.4541	-1226.44727	26.56923	720.10522	-1241.28894	46.80777	939.08344	-1588.0238	59.58719	948.04907	-1350.04932	-111.41126	966.9267	-1527.7478	-102.30898	976.9436	-1379.88733	-50.99184	641.24048	-1630.17065	-79.64482	463.49448	-1608.27466	-226.69102	324.92169	-1599.08728	-355.16107	160.57314	-1551.79736	-401.18658	162.63599	-1509.86768	-272.94302	32.45252	-1516.94324	30.26904	652.81415	-1308.08459	68.36127	475.85138	-1347.46497	52.57215	288.06409	-1343.03589	62.84481	72.36304	-1391.80835	20.7364	40.11591	-1444.81787	205.64438	38.22816	-1405.18896	NaN	NaN	NaN	NaN	NaN	NaN	NaN	NaN	NaN	NaN	NaN	NaN	NaN	NaN	NaN	NaN	NaN	NaN	NaN	NaN	NaN	NaN	NaN	NaN	NaN	NaN	NaN	NaN	NaN	NaN	NaN	NaN	NaN	NaN	NaN	NaN
160	1.59	93.19418	1618.53394	-1514.66626	76.559	1618.31433	-1382.38232	-38.85962	1590.19153	-1526.98926	-50.3136	1589.49707	-1395.94373	-87.20903	1420.89905	-1471.62219	-107.54807	1103.55591	-1466.30847	35.22403	1346.67529	-1467.46741	87.46098	1185.46777	-1473.79248	-135.5679	1240.18665	-1375.26074	-6.93424	1382.54199	-1622.88147	11.22253	1187.54932	-1693.14392	36.28542	1066.90613	-1703.33289	91.85356	949.37659	-1698.4895	140.67004	842.29517	-1662.89758	116.15482	838.22656	-1713.13477	153.13989	762.96979	-1700.08081	-13.27861	1368.80652	-1308.76123	-3.67816	1144.02502	-1240.68445	13.53257	1031.54224	-1233.4021	26.86486	895.10468	-1233.83594	48.78069	798.81702	-1273.23743	23.92943	794.4707	-1224.677	39.85742	721.32056	-1239.34338	55.21859	939.64154	-1587.21265	68.66871	947.99847	-1349.25659	-103.16672	967.3891	-1526.43604	-93.16286	977.56586	-1378.46606	-38.90274	640.63342	-1630.94495	-63.91753	462.13095	-1610.04004	-212.89873	326.23737	-1600.13635	-344.40948	165.10118	-1553.41541	-390.33304	170.68755	-1511.36646	-270.88876	32.93584	-1517.39697	36.65228	653.21558	-1307.19336	73.6172	475.68753	-1346.63708	55.75809	288.08279	-1342.62695	63.04076	72.3288	-1391.91162	20.77875	40.13866	-1444.81262	205.79713	38.15649	-1405.27417	NaN	NaN	NaN	NaN	NaN	NaN	NaN	NaN	NaN	NaN	NaN	NaN	NaN	NaN	NaN	NaN	NaN	NaN	NaN	NaN	NaN	NaN	NaN	NaN	NaN	NaN	NaN	NaN	NaN	NaN	NaN	NaN	NaN	NaN	NaN	NaN
161	1.6	102.09627	1618.65869	-1514.10107	85.42525	1618.43103	-1381.82605	-30.04358	1590.83862	-1526.46948	-41.48407	1590.04712	-1395.375	-78.6157	1421.06262	-1470.6283	-98.79851	1103.75159	-1464.57739	43.81372	1346.98999	-1466.93994	96.04871	1185.80164	-1473.21509	-126.36349	1240.13196	-1373.82056	0.84346	1382.49744	-1622.17957	17.76218	1187.21558	-1692.26245	41.49621	1066.24219	-1702.25281	95.18223	947.77911	-1697.75745	142.46547	839.89911	-1662.52039	117.83653	836.31757	-1712.60339	152.93556	760.04602	-1699.4469	-4.11595	1369.17664	-1308.01184	6.76031	1144.65723	-1239.38	24.63897	1032.31616	-1231.81494	38.9916	896.02338	-1232.01892	61.81426	799.95221	-1271.26355	36.86161	795.3269	-1222.80774	53.60917	722.35034	-1237.31091	63.16208	939.93732	-1586.32239	77.53249	947.71173	-1348.53857	-95.05134	967.35822	-1525.14807	-84.31595	977.99701	-1377.16553	-26.73073	639.73389	-1631.57056	-47.86094	460.66379	-1611.4519	-197.88696	327.31464	-1601.6084	-333.51114	169.80101	-1555.45508	-379.05005	178.91705	-1513.60596	-268.69254	34.27872	-1517.69983	43.36503	653.55725	-1305.82593	78.87299	475.62924	-1345.74597	59.17228	288.0426	-1342.22949	63.20539	72.23399	-1391.97424	20.75831	40.18028	-1444.75	205.8904	38.08418	-1405.33447	NaN	NaN	NaN	NaN	NaN	NaN	NaN	NaN	NaN	NaN	NaN	NaN	NaN	NaN	NaN	NaN	NaN	NaN	NaN	NaN	NaN	NaN	NaN	NaN	NaN	NaN	NaN	NaN	NaN	NaN	NaN	NaN	NaN	NaN	NaN	NaN
162	1.61	110.90808	1618.65479	-1513.59839	94.14895	1618.51514	-1381.31653	-21.32016	1591.2262	-1525.94568	-32.69328	1590.45325	-1394.85535	-70.33151	1421.58264	-1469.85095	-90.25771	1103.81946	-1462.90283	52.03211	1347.14221	-1466.32776	104.59887	1186.06934	-1472.72095	-117.34546	1240.10608	-1372.27466	8.64515	1382.37988	-1621.64966	24.20114	1186.57581	-1691.33948	46.76384	1065.35413	-1701.16199	98.62406	946.08496	-1697.10425	144.28622	837.33533	-1662.20715	119.25191	834.0564	-1712.07458	152.77049	757.02679	-1698.90942	5.03365	1369.39771	-1307.29297	17.29446	1145.07642	-1238.04565	35.8446	1032.91589	-1230.13489	51.19128	896.66766	-1230.16541	74.50645	800.62823	-1269.41626	49.89966	796.01819	-1220.86475	67.51588	723.21252	-1235.28906	70.90565	940.03607	-1585.62903	86.22023	947.64197	-1348.0072	-87.41246	967.10339	-1524.08301	-75.75709	978.28986	-1376.10205	-14.62414	638.65424	-1632.05945	-31.35313	459.15738	-1612.60767	-182.74629	328.13031	-1602.97498	-322.19775	174.81113	-1557.06714	-367.48914	186.53821	-1515.88892	-263.11044	37.71889	-1519.03674	50.84948	653.94702	-1304.70374	84.21114	475.64117	-1344.94824	62.51796	288.05011	-1341.88269	63.31292	72.34263	-1392.0863	20.82143	40.12582	-1444.66406	205.96649	38.00517	-1405.39063	NaN	NaN	NaN	NaN	NaN	NaN	NaN	NaN	NaN	NaN	NaN	NaN	NaN	NaN	NaN	NaN	NaN	NaN	NaN	NaN	NaN	NaN	NaN	NaN	NaN	NaN	NaN	NaN	NaN	NaN	NaN	NaN	NaN	NaN	NaN	NaN
